<?xml version="1.0" standalone="no"?>
<!DOCTYPE svg PUBLIC "-//W3C//DTD SVG 20010904//EN"
 "http://www.w3.org/TR/2001/REC-SVG-20010904/DTD/svg10.dtd">
<svg version="1.0" xmlns="http://www.w3.org/2000/svg"
 width="225.000000pt" height="225.000000pt" viewBox="0 0 225.000000 225.000000"
 preserveAspectRatio="xMidYMid meet">
<metadata>
Created by potrace 1.11, written by Peter Selinger 2001-2013
</metadata>
<g transform="translate(0.000000,225.000000) scale(0.100000,-0.100000)"
fill="#000000" stroke="none">
<path d="M330 1170 l0 -450 259 0 259 0 158 213 c87 116 162 217 166 224 6 7
-50 91 -159 237 l-168 226 -257 0 -258 0 0 -450z m545 119 c44 -60 79 -116 79
-123 -1 -8 -39 -63 -84 -123 l-82 -110 -119 -2 -119 -2 0 235 0 236 123 0 122
-1 80 -110z"/>
<path d="M1042 1588 c12 -18 87 -117 165 -221 79 -103 143 -193 143 -199 0 -6
-66 -99 -147 -206 -82 -106 -156 -204 -166 -218 l-19 -24 110 0 109 0 114 150
c63 82 116 149 119 149 5 0 164 -209 205 -269 l20 -30 108 0 c59 0 107 2 107
5 0 3 -68 94 -151 202 -84 109 -158 208 -166 220 -14 21 -9 31 108 185 67 90
145 191 172 226 l49 62 -110 0 -111 0 -92 -122 c-51 -68 -104 -137 -117 -154
l-25 -32 -70 92 c-38 50 -90 119 -116 153 l-46 62 -108 1 -108 0 23 -32z"/>
</g>
</svg>
